<?xml version="1.0" standalone="no"?>
<!DOCTYPE svg PUBLIC "-//W3C//DTD SVG 20010904//EN"
 "http://www.w3.org/TR/2001/REC-SVG-20010904/DTD/svg10.dtd">
<svg version="1.0" xmlns="http://www.w3.org/2000/svg"
 width="400.000000pt" height="400.000000pt" viewBox="0 0 400.000000 400.000000"
 preserveAspectRatio="xMidYMid meet">
<metadata>
Created by potrace 1.11, written by Peter Selinger 2001-2013
</metadata>
<g transform="translate(0.000000,400.000000) scale(0.100000,-0.100000)"
fill="#000000" stroke="none">
<path d="M1931 3574 c-53 -14 -86 -34 -172 -106 -24 -20 -375 -312 -779 -648
-1032 -858 -970 -805 -970 -839 0 -23 25 -69 50 -91 3 -3 32 -36 64 -75 92
-110 115 -115 202 -43 27 22 69 57 93 77 63 51 112 92 141 119 14 12 29 22 33
22 7 0 230 180 247 200 3 3 84 71 180 150 96 80 184 152 195 162 11 9 30 26
43 36 13 11 42 35 64 54 48 38 168 138 184 153 6 6 30 26 54 45 24 19 133 110
244 202 172 144 202 165 216 154 12 -11 206 -173 390 -326 25 -21 117 -97 205
-170 171 -142 251 -209 269 -225 6 -6 76 -64 156 -130 80 -66 153 -127 164
-137 10 -9 63 -52 118 -95 54 -43 168 -135 252 -204 150 -124 192 -147 227
-128 21 11 171 185 188 217 7 13 10 34 7 47 -4 15 -107 107 -286 256 l-280
232 0 513 c0 286 -4 523 -9 537 -16 41 -49 46 -324 44 l-259 -2 -21 -25 c-21
-25 -22 -33 -21 -278 0 -138 -2 -252 -5 -252 -5 0 -156 124 -341 280 -331 278
-308 264 -440 284 -14 2 -49 -3 -79 -10z"/>
<path d="M1803 2771 c-231 -191 -222 -184 -383 -316 -67 -55 -219 -180 -338
-278 -118 -98 -225 -183 -236 -189 -12 -6 -62 -45 -112 -87 -50 -42 -105 -87
-122 -101 l-32 -25 0 -618 c0 -685 -2 -661 66 -713 l37 -29 504 -3 503 -3 0
479 0 478 313 0 312 -1 2 -380 c1 -209 3 -424 3 -477 l0 -98 488 0 489 0 44
23 c27 15 52 38 66 63 l23 39 -1 620 0 620 -127 102 c-70 56 -149 119 -177
139 -56 42 -361 292 -1005 825 l-116 96 -201 -166z"/>
</g>
</svg>
